<svg xmlns="http://www.w3.org/2000/svg" width="256" height="256">
  <path fill="#756c74" d="M211.5 192.46a105.75 26.9 0 0 1-211.5 0 105.75 26.9 0 1 1 211.5 0z"/>
  <path fill="#f5cc7a" d="M81.34 0C49.3 0 23.5 30.57 23.5 68.53l16.05 145.94c18.86 5.02 44.05 8.1 71.73 8.1 27.05 0 51.7-2.9 70.4-7.74l6.27-146.3C189.57 30.6 162.2 0 130.15 0h-48.8z"/>
  <path fill="#f2bb4e" d="M81.34 0C49.3 0 23.5 30.57 23.5 68.53l8 143.54c6 2 12.84 3.74 20.43 5.22C56.76 128.3 27.2 7.7 118.53 0h-37.2z"/>
  <path fill="#756c74" d="M93.33 74.37c-10.94 0-20.08 8.12-21.95 18.87A3.87 4.04 0 1 0 79 94.7c1.2-6.9 7.07-12.24 14.33-12.24s13.2 5.34 14.4 12.24a3.87 4.04 0 1 0 7.62-1.46c-1.87-10.75-11.07-18.87-22.02-18.87z"/>
  <path fill="#756c74" d="M132.02 149.9a18.4 18.77 0 1 1-36.8 0 18.4 18.77 0 1 1 36.8 0z"/>
  <path fill="#ebdaca" d="M231.95 112.3c-14.37-10-37.76-11.25-54.77-5l-68.1 27.46c-7.65 3.63-10.64 17.2-7.53 23.9l30.1 58.28c7.75 10.28 12.75 16.45 19.8 21.35 27.27 18.9 67.34 6.1 89.57-28.7 22.24-34.8 18.2-78.4-9.07-97.3z"/>
  <path fill="#b6a39e" d="M236.62 206.95a54.02 69.63 29.23 0 1-88.9-61.74 54.02 69.63 29.23 1 1 88.9 61.8z"/>
  <path fill="#fff" d="M162.68 135.37c-1.75-1.22-3.57-2.15-5.5-2.82-3.57 3.78-6.92 7.97-9.88 12.6-9.62 15.06-13.82 31.87-13.2 47.5 11.6 3.72 25.54-1.9 33.64-14.58 9.58-15 7.3-34.12-5.06-42.7z"/>
  <path fill="#756c74" d="M164 170.07a11.3 19.7 22.46 1 1-20.5-9.6 11.3 19.7 22.46 0 1 20.5 9.6z"/>
  <path fill="#756c74" d="M150.45 74.25c-10.94 0-20.15 8.13-22.02 18.88a3.87 4.04 0 0 0 7.62 1.46c1.2-6.9 7.14-12.3 14.4-12.3 7.26 0 13.13 5.3 14.33 12.2a3.87 4.04 0 0 0 7.62-1.47c-1.87-10.75-11-18.88-21.95-18.88z"/>
  <path fill="#f1eded" fill-opacity=".71" d="M227.76 82.36c-1.63.7-1.33 1.76-1 2.8 8 2.94 15.5 6.72 22.43 11.27 1.1-.33 2-.85 1.6-2.5-7.2-4.66-14.9-8.56-23.1-11.57zM132.9 254.8c1.78-.03 1.9-1.12 2-2.22-6.3-5.75-11.85-12.1-16.55-18.94-1.18-.13-2.2 0-2.43 1.7 4.83 7 10.5 13.56 16.98 19.46zm123.1-15c.04-1.8-1.03-1.96-2.12-2.1-6 6.08-12.55 11.37-19.54 15.8-.18 1.17-.1 2.2 1.57 2.5 7.2-4.54 14-9.96 20.1-16.2z"/>
</svg>
