<svg xmlns="http://www.w3.org/2000/svg" width="512" height="225">
  <path fill="#756c74" d="M134.15 153.98a27.57 11.88 0 0 1-55.14 0 27.57 11.88 0 1 1 55.2 0zm-79 48.4a27.57 11.88 0 0 1-55.15 0 27.57 11.88 0 1 1 55.14 0zm370.57 10.64a27.57 11.88 0 0 1-55.14 0 27.57 11.88 0 1 1 55.14 0zm-99.04-32.08a87.86 21.45 0 0 1-175.73 0 87.86 21.45 0 1 1 175.73 0z"/>
  <path fill="#f5cc7a" d="M361.97 32.6c-1.98.07-3.97.3-5.97.66l-.43.1-.4.1c-11.76 2.82-21.6 8.43-28.4 16.06-6.78 7.64-10.43 16.22-13.96 25.06-1.6 3.76-1.7 8.2-.2 12 1.6 3.82 4.7 6.95 8.5 8.47 3.9 1.53 8.3 1.42 12-.28s6.8-4.97 8.2-8.85c3.2-8.02 5.9-13.12 8.5-16.07 2.6-2.87 5.3-4.78 12.2-6.5 6.4-1.1 8.4-.05 12.4 4.63 4.1 4.8 8.6 14.67 11.3 27.8 5.4 26.24-1.6 88.83-7.02 122.9-.15.84-.24 1.7-.24 2.54 5 2.3 12.1 3.78 20 3.78 3.65 0 7.1-.36 10.3-.9l.15-.58c5.9-36.94 13.4-101.64 6.8-133.87-3.3-16.12-8.45-30.53-18.04-41.66-8.4-9.8-21.6-16-35.5-15.4zM38.77.5a15.3 15.3 0 0 0-.44 30.6c27.56 1.74 40.34 12.7 48.7 34.35 8.33 21.67 9.2 55.38 2.76 95.56a15.3 15.3 0 0 0-.2 2.4c4.6 1.6 10.6 2.6 17 2.6 4.9 0 9.5-.5 13.6-1.5 6.6-42.4 6.8-80-4.7-109.9C103.9 24.2 77.2 3 40.3.6a15.3 15.3 0 0 0-1.6-.1z"/>
  <path fill="#f5cc7a" d="M55.67 99.12c-2.4.07-4.78.72-6.9 1.87-26.38 13.7-37.92 38.8-41.12 60.5-2.65 18.1 1.35 38.3 5.12 51 4.25 1.1 9.28 1.8 14.68 1.8 6.47 0 12.42-1 17.13-2.6-.2-1-.48-2-.87-3-1.6-4.5-8-27.4-5.7-42.8 2.3-15.48 8.4-29.3 25-37.98 6.2-3.1 9.7-10.7 8-17.4-1.7-6.7-8.3-11.77-15.2-11.6z"/>
  <path fill="#f5cc7a" d="M213.38 25.94c-26.62 0-48.07 24.37-48.07 54.62l13.4 116.32c15.7 4 36.6 6.45 59.6 6.45 22.5 0 43-2.32 58.5-6.17l5.2-116.6c1.4-30.22-21.4-54.62-48-54.62h-40.6z"/>
  <path fill="#f2bb4e" d="M213.38 25.94c-26.62 0-48.07 24.37-48.07 54.62l6.7 114.4c5 1.6 10.7 2.98 17 4.17 4-70.88-20.5-167 55.4-173.2h-30.9z"/>
  <path fill="#f2bb4e" d="M372.45 62.96c-1.14 0-2.43.1-4.02.38 2.02.64 3.64 2.1 5.84 4.64 4.12 4.8 8.55 14.67 11.24 27.8 5.4 26.24-1.6 88.83-7 122.9-.1.86-.2 1.73-.2 2.6 2 .88 4.3 1.64 6.8 2.24-.2-1.6-.3-3.23 0-4.83 5.5-34.1 12.5-96.7 7.1-123-2.7-13.1-7.1-23-11.2-27.8-3-3.5-4.9-5-8.3-5z"/>
  <path fill="#ebdaca" d="M390.04 48.78c-14.94 0-32.36 10.34-41.74 22.8L284.88 130c-3.83 6.17-3.5 11.34.88 17.28l80.2 21.9c10.3 3.37 16.75 5.24 24.08 5.24 28.35 0 51.3-28.08 51.3-62.78s-22.95-62.86-51.3-62.86z"/>
  <path fill="#b6a39e" d="M437.7 111.18a46.2 58.45 0 0 1-92.42 0 46.2 58.45 0 1 1 92.43 0z"/>
  <path fill="#fff" d="M351.53 97.2c-1.82 0-3.55.23-5.25.7-.83 4.3-1.3 8.82-1.3 13.44 0 15.02 4.7 28.63 12.33 39.14 10.1-3 17.6-13.56 17.6-26.2 0-14.97-10.4-27.08-23.3-27.08z"/>
  <path fill="#756c74" d="M368.44 120.54a16.45 9.72 80.55 1 1-19.17 3.2 16.45 9.72 80.55 0 1 19.17-3.2z"/>
  <path fill="#756c74" d="M233.42 88.8c-7.5 0-13.78 5.34-15.06 12.4a2.65 2.65 0 1 0 5.2.95c.83-4.53 4.9-8.04 9.86-8.04 4.97 0 9 3.6 9.8 8.1a2.65 2.65 0 1 0 5.22-.9c-1.28-7-7.53-12.4-15.02-12.4zm15.55 47.54a1.38 1.38 0 0 0-1.1 1.77c1.25 4.6 5.47 7.9 10.47 7.9 5 0 9.22-3.3 10.47-7.9a1.4 1.4 0 1 0-2.6-.7c-.9 3.4-4 5.9-7.8 5.9s-6.8-2.5-7.8-5.9a1.38 1.38 0 0 0-1.5-1zm28.73-46.72c-7.48 0-13.73 5.33-15 12.38a2.65 2.65 0 1 0 5.2.96c.83-4.53 4.84-8.04 9.8-8.04 4.98 0 9.04 3.5 9.86 8.04a2.65 2.65 0 1 0 5.22-.96c-1.28-7.05-7.58-12.38-15.07-12.38z"/>
  <path fill="#f2bb4e" d="M55.67 99.12a15.3 15.3 0 0 0-6.9 1.87c-26.37 13.7-37.9 38.8-41.1 60.5-3.1 21.1-.05 39.2 3.87 50.5.6.2 1.2.3 1.8.5-3.22-11.4-5.32-27.8-2.57-46.5 3.2-21.8 14.74-46.8 41.13-60.6a15.3 15.3 0 0 1 6.88-1.9 15.3 15.3 0 0 1 11.38 4.64 15.3 15.3 0 0 0-14.5-9.3z"/>
  <path fill="#f5cc7a" d="M348.02 35.67c-8.6 3.13-15.93 7.85-21.28 13.87-6.78 7.64-10.43 16.22-13.97 25.06a15.3 15.3 0 1 0 28.4 11.34c2.55-6.35 4.75-10.85 6.85-13.92V35.67z"/>
  <path fill="#f2bb4e" d="M356 33.26l-.43.1-.4.1c-11.76 2.82-21.6 8.43-28.4 16.06-6.78 7.64-10.43 16.22-13.96 25.06-2.3 5.15-1.4 11.55 2.2 15.9 3.6 4.38 9.7 6.5 15.2 5.3-4.4-.97-8.3-4-10.4-8.06-2-4.04-2.1-9-.3-13.14 3.6-8.84 7.2-17.42 14-25.06 11.2-9.26 20.7-15.85 33.8-16.83-3.8-.3-7.6-.1-11.1.5z"/>
  <path fill="#b6a39e" d="M483.4 111.03a1.5 1.5 0 1 0 .07 3l25.62.66a1.5 1.5 0 1 0 .1-3l-25.7-.7a1.5 1.5 0 0 0-.2 0zm1.76-81.3a1.5 1.5 0 0 0-.66.2L462.75 43.5a1.5 1.5 0 1 0 1.56 2.56l21.8-13.56a1.5 1.5 0 0 0-.9-2.78zm-16.88 146.83a1.5 1.5 0 0 0-.6 2.78l21.8 13.57a1.5 1.5 0 1 0 1.55-2.5l-21.75-13.5a1.5 1.5 0 0 0-1-.2z"/>
  <path fill="#f2bb4e" d="M65.84 38.22c9.92 5.64 16.33 14.6 21.2 27.22 8.34 21.66 9.2 55.38 2.74 95.56-.12.8-.2 1.6-.2 2.4 1.32.45 2.75.83 4.23 1.16.1-.5.1-.98.2-1.47 6.5-40.2 5.6-73.9-2.8-95.6-5.5-14.3-13-23.9-25.3-29.3z"/>
</svg>
