<svg xmlns="http://www.w3.org/2000/svg" width="46" height="42">
  <path fill="#756c74" d="M3.35 33.36a21.33 8.6 0 0 0 42.65 0 21.33 8.6 0 1 0-42.65 0z"/>
  <path fill="#f5cc7a" d="M13.52.03a14.37 14.4 0 0 0-8.5 25.32s.97.86 2.03 1.9c.5.48 1.07 1.25 1.4 1.68.47.86.86 1.5 1.04 2.4 0 0 .2 4.1.1 7.2 0 .38-.1.6-.1.94a21.33 8.6 0 0 0 28.8.53v-.37c.16-4 .42-8.45-.7-14.02-.76-3.7-2.46-8-4.7-11.9-2.7-4.8-4.2-5.5-5.84-7.1C25.46 5 24 3.8 24 3.8A14.37 14.4 0 0 0 13.5.08z"/>
  <path fill="#f2bb4e" d="M8.42 1.33a14.37 14.4 0 0 0-3.4 24.02s.97.86 2.03 1.9c.5.48 1.07 1.25 1.4 1.68.47.86.86 1.5 1.04 2.4 0 0 .2 4.1.1 7.2 0 .38-.1.6-.1.94a21.33 8.6 0 0 0 2.34.84c.06-.9.15-1.9.2-3.2.13-3.1-.14-7.2-.14-7.2-.17-.9-.56-1.5-1.03-2.4-.34-.4-.9-1.2-1.4-1.7l-2-1.9A14.37 14.4 0 0 1 8.4 1.4z"/>
</svg>
