<svg xmlns="http://www.w3.org/2000/svg" width="64" height="100">
  <path fill="#756c74" d="M14.54 89.63a24.73 10.3 0 0 0 49.46 0 24.73 10.3 0 1 0-49.46 0z"/>
  <path fill="#f5cc7a" d="M14.06 0c2.15.07 4.3.63 6.18 1.62 23.68 11.97 34.03 33.7 36.9 52.6 2.38 15.7-1.2 33.16-4.6 44.2-3.8 1-8.32 1.58-13.17 1.58-5.8 0-11.14-.8-15.36-2.2.2-.87.5-1.75.8-2.57 1.5-3.87 7.2-23.77 5.2-37.15-2-13.4-7.5-25.4-22.4-32.92-5.6-2.68-8.7-9.3-7.2-15.1C1.9 4.23 7.9-.14 14.1 0z" style="text-indent:0;text-align:start;line-height:normal;text-transform:none;block-progression:tb;-inkscape-font-specification:Sans" color="#000" overflow="visible" font-family="Sans"/>
  <path fill="#f2bb4e" d="M14.06 0a13.73 13.28 0 0 1 6.18 1.62c23.68 11.97 34.03 33.7 36.9 52.6 2.78 18.3.03 34.07-3.48 43.87l-1.63.4c2.9-9.9 4.78-24.1 2.32-40.3-2.87-18.9-13.22-40.68-36.9-52.6A13.73 13.28 0 0 0 11.27 4a13.73 13.28 0 0 0-10.2 4.04 13.73 13.28 0 0 1 13-8.05z" style="text-indent:0;text-align:start;line-height:normal;text-transform:none;block-progression:tb;-inkscape-font-specification:Sans" color="#000" overflow="visible" font-family="Sans"/>
</svg>
