<?xml version="1.0" encoding="UTF-8" standalone="no"?>
<svg width='120px' height='120px' xmlns="http://www.w3.org/2000/svg" viewBox="0 0 100 100" preserveAspectRatio="xMidYMid" class="pokeball-heart">
  <rect width="100" height="100" x="0" y="0" style="fill:none" />
  <g transform="translate(50,50)">
    <g>
      <g transform="translate(-50,-50)">
        <circle cx="63.167" cy="63.166" r="61.667" transform="matrix(0.63324204,0,0,0.63324204,10.072698,9.0798439)" style="fill:#e74536" />
        <path d="m 11.022561,49.079211 c 0,21.568857 17.48318,39.05077 39.050137,39.05077 21.566957,0 39.050137,-17.481913 39.050137,-39.05077 H 11.022561 z" style="fill:#ffffff" />
        <path d="m 50.072698,9.0798439 c -22.056454,0 -40,17.9435471 -40,39.9993671 0,22.056453 17.943546,40.000633 40,40.000633 22.056453,0 40,-17.94418 40,-40.000633 0,-22.05582 -17.943547,-39.9993671 -40,-39.9993671 z m 0,1.8997261 c 20.689917,0 37.568984,16.580177 38.076211,37.149778 H 11.996487 C 12.503714,27.559747 29.382781,10.97957 50.072698,10.97957 z m 0,76.200548 c -20.689917,0 -37.568984,-16.58081 -38.076211,-37.151044 H 88.148909 C 87.641682,70.599308 70.762615,87.180118 50.072698,87.180118 z" style="fill:#4c4845" />
        <circle cx="63.167" cy="63.167" r="16.764" transform="matrix(0.63324204,0,0,0.63324204,10.072698,9.0798439)" tyle="fill:#ffffff" />
        <path d="m 50.072698,60.64601 c -3.088955,0 -5.993636,-1.20316 -8.178321,-3.387845 -4.508683,-4.508683 -4.508683,-11.846059 0,-16.356642 4.50995,-4.508683 11.846692,-4.508683 16.356009,0 l 0,0 c 2.184685,2.185319 3.388478,5.09 3.388478,8.178954 0,3.088955 -1.20316,5.993636 -3.388478,8.178321 -2.184052,2.184052 -5.0881,3.387212 -8.177688,3.387212 z m 0,-21.22754 c -2.475343,0 -4.950053,0.941631 -6.834581,2.82616 -3.767791,3.76969 -3.767791,9.902005 0,13.670429 1.825636,1.825637 4.252853,2.831225 6.834581,2.831225 2.581728,0 5.008944,-1.005588 6.833948,-2.831225 1.825637,-1.825637 2.831858,-4.252854 2.831858,-6.834582 0,-2.581727 -1.005588,-5.008944 -2.831858,-6.835214 -1.883262,-1.884528 -4.358605,-2.826793 -6.833948,-2.826793 z" style="fill:#4c4845" />
        <path d="m 53.684711,52.691224 c -1.99408,1.992179 -5.22868,1.992179 -7.221493,0 -1.994079,-1.994713 -1.993446,-5.227413 0,-7.220859 1.993446,-1.994713 5.227413,-1.993446 7.220859,0 1.994079,1.993446 1.994079,5.226146 6.34e-4,7.220859 z" style="fill:#ffffff" />
        <path d="m 50.073331,55.132372 c -1.551443,0 -3.101619,-0.589549 -4.281982,-1.769279 -2.36136,-2.361992 -2.36136,-6.203872 0,-8.564598 1.143001,-1.144269 2.664049,-1.774344 4.281349,-1.774344 0,0 0,0 0,0 1.617933,0 3.138981,0.630709 4.282616,1.774344 2.360726,2.360093 2.360726,6.201972 6.33e-4,8.563965 0,0 0,6.33e-4 -6.33e-4,6.33e-4 -1.180363,1.17973 -2.731173,1.769279 -4.281983,1.769279 z m -6.33e-4,-10.208495 c -1.110073,0 -2.153656,0.432504 -2.938243,1.217724 -1.620467,1.620467 -1.620467,4.257286 0,5.877753 1.619833,1.6192 4.257286,1.6192 5.878386,0 1.619833,-1.6211 1.6192,-4.25792 -6.34e-4,-5.877753 -0.784586,-0.784587 -1.828803,-1.217091 -2.939509,-1.217724 l 0,0 z" style="fill:#4c4845" />
      </g>
      <animateTransform attributeName="transform" type="scale" from="1.3" to="0.9" dur="1s" repeatCount="indefinite" calcMode="spline" values="1.3;0.9;1.1;0.9" keyTimes="0;0.3;0.301;1" keySplines="0 0.75 0.25 1;0 1 0 1;0 .75 .25 1"></animateTransform>
    </g>
  </g>
</svg>
